<?xml version="1.0" encoding="UTF-8"?>
<svg id="Layer_1" xmlns="http://www.w3.org/2000/svg" version="1.1" viewBox="0 0 100 100">
  <!-- Generator: Adobe Illustrator 29.8.3, SVG Export Plug-In . SVG Version: 2.1.1 Build 3)  -->
  <defs>
    <style>
      .st0 {
        fill: #fff;
      }
    </style>
  </defs>
  <path class="st0" d="M95.5,84.1c-.5.9-1.2,1-2.2,1.4-9.3,3-19.4,4.8-28.9,7.7l-29.3-7.8-29.1,7.8c-.8.1-1.5-.4-1.9-1.1V27.4c-.2-.8.5-1.4,1.1-1.8l12.5-3.4c.6-.9,1.1-1.8,2-2.5.9-.7,1.9-.9,2.1-1.1.2-.2.5-1.6.7-2.2,2.4-6.1,10.1-8.7,15.6-5,.4.3,1.6,1.4,1.8,1.4.4,0,.8-.2,1.2-.2,3,.2,5.5,1.9,6.8,4.6,1.3,2.7.2,1.1.3,1.2,0,.1.9.3,1.2.5,1.5.9,2.2,1.9,3.2,3.3l11.8,3.2,29.6-7.8c.8.1,1.1.6,1.5,1.2v65.2h0ZM31,13.5c-2.2.3-4.4,2.2-5.1,4.2-.8,2-.3,1.9-.5,2.9-.5,2-2.8,1-3.8,2.4-1,1.4.1,4.2,2.4,4.2,7.2-.4,15,.5,22.1,0s3.1-.9,3-2.7c-.1-3.2-3.8-1.6-4.3-3.8-.5-2.3,0-2.2-1.4-3.3-1.9-1.6-3.4-.2-5-.7-1.6-.5-1.5-1.5-2.2-1.9-1.5-1.1-3.5-1.4-5.4-1.1h0ZM92,49.9c-4.5.6-9.1,5.6-13.3,1.3-3.5-3.6-.7-8.2,2.9-10.4,0-6.6,5.3-10,10.4-12.8v-6.2l-25.7,7v23.5c-.3,2-3.2,2.1-3.6.2v-23.6l-9.9-2.7c-.9,1.9-1.8,3.4-3.8,4.2-2,.8-1.4.5-1.5.5h-10.4v3.5c0,.5-1.3,1.4-1.9,1.3-.6,0-1.7-.8-1.7-1.3v-3.5h-10.4c-.2,0-1.3-.3-1.5-.5-2-.8-3-2.3-3.8-4.2l-9.9,2.7v24.3h2.9c1.1,0,4.4,2,5.7,2.5,2.7.9,5.7,1.4,7.8-.8,2.1-2.3,4.1-8.4,9.2-8,.1-1.6-.7-4.4,1.7-4.5s1.6,3.4,1.9,5.2l12.4,3.6c7.4,2.8,5.5,13-1.5,13.1-7,.1-2.2-.5-2.8-.5-1.6.1-2.9,3.9-3.7,5.2-.8,1.3-2.5,3.3-4.4,3.7v9.5l25.7,6.9v-4.4c0-.7,1.2-1.2,1.9-1.2s1.7.6,1.7,1.2v4.4l25.7-6.8v-32.3h0ZM92,46.1v-13.9c-2.6,1.5-5.4,3.1-6.4,6.2-1,3.1-.3,2.8-.7,3.8-.9,2-5.2,3.3-4,6,1.2,2.6,1.4,1.2,2.2,1.2.8,0,3.9-1.7,5-2.1,1.1-.4,2.5-.9,3.8-1.1h0ZM33.4,50.2c-3,0-4.1,3.9-5.7,6-3.3,4.3-7.6,4.5-12.5,2.7-4.9-1.7-4.6-2.8-7.4-2.3v32.3l11.7-3c.3-7.5,6.7-14.9,13.9-16.6v-19.1h0ZM37,51.1v17.3c.5,0,1.1-1,1.3-1.4,1.6-2.5,2.6-6.5,6.1-6.9,3.5-.4,1.9.3,3,.3,3.6.2,4.3-4.5,1.2-5.9l-11.7-3.4h0ZM33.4,73.1c-4.4,1.1-9.8,7-10.2,11.5,0,.3,0,.3.3.3l9.9-2.7v-9.1Z"/>
  <path class="st0" d="M80,67c1.4.2,4.8-.7,5.2,1.4.5,3.1-3.3,2.1-5.2,2.2,0,.5-.1,1-.3,1.4-.3.7-1,1.7-1.1,2.2-.1.5,0,.3,0,.5.8,1.1,4.6,3.4,1.7,4.9-2.9,1.6-3.2-1.7-4.5-2.7-1.1.8-2.3,1.3-3.6,1.6-.5.3.8,5-1.8,5.2-2.7.2-1.9-3.6-2.1-5.2-.6-.3-1.3-.4-1.9-.6-.6-.3-1.4-1.1-2.1-.6-1.2.8-2.6,4-4.6,2.1-2-1.9,1.4-3.6,2.3-4.9-.5-1.3-1.4-2.4-1.4-3.8-1.6-.3-4.9.8-5.2-1.5-.2-2.3,3.4-1.9,5.2-2.1,0-1.4.9-2.5,1.4-3.8-.9-1.3-4.2-3.2-2.2-4.9,2-1.8,3.6,1.4,4.7,2.4l3.7-1.5c.3-1.6-.6-5.1,2-5.2,2.6-.1,1.4,4.8,2,5.3,1.2.3,2.5.7,3.5,1.5,1.1-1,3.6-4.5,5.2-2.1,1.5,2.4-1.6,3.2-2.5,4.6.6,1.2,1.4,2.4,1.4,3.8ZM69.2,62.8c-7.8,1.1-5.8,14.1,2.7,12,7.2-1.7,5.8-13.2-2.7-12Z"/>
</svg>