<?xml version="1.0" encoding="UTF-8"?>
<svg id="Layer_1" xmlns="http://www.w3.org/2000/svg" version="1.1" viewBox="0 0 655.7 175.7">
  <!-- Generator: Adobe Illustrator 29.8.3, SVG Export Plug-In . SVG Version: 2.1.1 Build 3)  -->
  <defs>
    <style>
      .st0 {
        fill: #fff;
      }
    </style>
  </defs>
  <path class="st0" d="M68.9,21.9h45l49.6,138h-41.8l-6.2-19h-49l-6.2,19H19.3L68.9,21.9ZM104.3,105.7l-13.2-41.4-13.4,41.4h26.6Z"/>
  <path class="st0" d="M169.9,124.9v-34.2h-13.6v-32.8h6.6c6,0,9-3,9-9v-17h34v26h19.2v32.8h-19.2v28.2c0,5.4,3,8.2,8.8,8.2h10.4v32.8h-15.8c-26.4,0-39.4-11.6-39.4-35Z"/>
  <path class="st0" d="M241.7,57.9h36v7.6c7.2-6.6,16-10,26.4-10s23.8,5.4,30,14.8c8.4-9.8,19.4-14.8,32.8-14.8,21.8,0,36.4,14.8,36.4,37.4v25.2c0,4.6,2.4,7,7,7h2.2v34.8h-9.8c-23.6,0-35.4-11.2-35.4-33.8v-22.2c0-8.2-5-13.6-12.6-13.6s-14.2,5.6-14.2,14v55.6h-36v-56c0-8.2-5-13.6-12.6-13.6s-14.2,5.6-14.2,14v55.6h-36V57.9Z"/>
  <path class="st0" d="M419.1,108.9c0-30.4,23.8-53.4,55.4-53.4s55.4,23,55.4,53.4-23.8,53.4-55.4,53.4-55.4-23-55.4-53.4ZM492.9,108.9c0-10.6-7.8-18.6-18.4-18.6s-18.4,8-18.4,18.6,7.8,18.6,18.4,18.6,18.4-8,18.4-18.6Z"/>
  <path class="st0" d="M566.1,150.3l-3.4,9.6h-37l39.2-102h41.2c0,25.4,36.8,23.2,36.8,61.6s-15.6,42.8-42.6,42.8-25.6-4.4-34.2-12ZM585.3,97.1l-8.4,23.2c3.6,4.4,9.4,7.2,16.2,7.2s12.8-3.6,12.8-8.8c0-8-12.6-11.8-20.6-21.6Z"/>
</svg>